<mxfile host="app.diagrams.net" modified="2023-04-17T09:31:28.214Z" agent="Mozilla/5.0 (Windows NT 10.0; Win64; x64; rv:109.0) Gecko/20100101 Firefox/112.0" etag="gEkv1C-kb3fGKapNUeQ1" version="21.1.8" type="github">
  <diagram name="Page-1" id="8W0tcNeGEt5MvnlnJrC4">
    <mxGraphModel dx="1434" dy="754" grid="1" gridSize="10" guides="1" tooltips="1" connect="1" arrows="1" fold="1" page="1" pageScale="1" pageWidth="1169" pageHeight="827" math="0" shadow="0">
      <root>
        <mxCell id="0" />
        <mxCell id="1" parent="0" />
        <mxCell id="majuoLSN9-7fEdckSJZj-1" value="" style="rounded=0;whiteSpace=wrap;html=1;fillColor=#f5f5f5;fontColor=#333333;strokeColor=#666666;" vertex="1" parent="1">
          <mxGeometry x="10" width="1150" height="90" as="geometry" />
        </mxCell>
        <mxCell id="majuoLSN9-7fEdckSJZj-2" value="Filtrer affichages" style="shape=partialRectangle;whiteSpace=wrap;html=1;bottom=0;top=0;fillColor=none;" vertex="1" parent="1">
          <mxGeometry x="250" y="20" width="130" height="50" as="geometry" />
        </mxCell>
        <mxCell id="majuoLSN9-7fEdckSJZj-3" value="Formulaires" style="shape=partialRectangle;whiteSpace=wrap;html=1;bottom=0;top=0;fillColor=none;" vertex="1" parent="1">
          <mxGeometry x="380" y="20" width="130" height="50" as="geometry" />
        </mxCell>
        <mxCell id="majuoLSN9-7fEdckSJZj-4" value="Modifications" style="shape=partialRectangle;whiteSpace=wrap;html=1;bottom=0;top=0;fillColor=none;" vertex="1" parent="1">
          <mxGeometry x="510" y="20" width="130" height="50" as="geometry" />
        </mxCell>
        <mxCell id="majuoLSN9-7fEdckSJZj-5" value="&lt;p style=&quot;line-height: 120%;&quot;&gt;Accueil&lt;/p&gt;" style="shape=partialRectangle;whiteSpace=wrap;html=1;bottom=0;top=0;fillColor=none;" vertex="1" parent="1">
          <mxGeometry x="115" y="20" width="135" height="50" as="geometry" />
        </mxCell>
        <mxCell id="majuoLSN9-7fEdckSJZj-6" value="" style="triangle;whiteSpace=wrap;html=1;rotation=90;" vertex="1" parent="1">
          <mxGeometry x="360" y="50" width="10" height="20" as="geometry" />
        </mxCell>
        <mxCell id="majuoLSN9-7fEdckSJZj-7" value="" style="triangle;whiteSpace=wrap;html=1;rotation=90;" vertex="1" parent="1">
          <mxGeometry x="490" y="50" width="10" height="20" as="geometry" />
        </mxCell>
        <mxCell id="majuoLSN9-7fEdckSJZj-8" value="FOOTER" style="rounded=0;whiteSpace=wrap;html=1;resizeWidth=0;" vertex="1" parent="1">
          <mxGeometry x="10" y="767" width="1150" height="60" as="geometry" />
        </mxCell>
        <mxCell id="majuoLSN9-7fEdckSJZj-9" value="" style="rounded=1;whiteSpace=wrap;html=1;" vertex="1" parent="1">
          <mxGeometry x="345" y="149" width="480" height="441" as="geometry" />
        </mxCell>
        <mxCell id="majuoLSN9-7fEdckSJZj-10" value="" style="rounded=0;whiteSpace=wrap;html=1;" vertex="1" parent="1">
          <mxGeometry x="522" y="230" width="183" height="30" as="geometry" />
        </mxCell>
        <mxCell id="majuoLSN9-7fEdckSJZj-11" value="&lt;b&gt;&lt;font style=&quot;font-size: 16px;&quot;&gt;Formulaire nouveau réalisateur/acteur&lt;br&gt;&lt;/font&gt;&lt;/b&gt;" style="text;html=1;strokeColor=none;fillColor=none;align=center;verticalAlign=middle;whiteSpace=wrap;rounded=0;" vertex="1" parent="1">
          <mxGeometry x="471.75" y="170" width="226.5" height="30" as="geometry" />
        </mxCell>
        <mxCell id="majuoLSN9-7fEdckSJZj-12" value="Nom :" style="text;html=1;strokeColor=none;fillColor=none;align=center;verticalAlign=middle;whiteSpace=wrap;rounded=0;" vertex="1" parent="1">
          <mxGeometry x="455" y="230" width="60" height="30" as="geometry" />
        </mxCell>
        <mxCell id="majuoLSN9-7fEdckSJZj-13" value="Prénom :" style="text;html=1;strokeColor=none;fillColor=none;align=center;verticalAlign=middle;whiteSpace=wrap;rounded=0;" vertex="1" parent="1">
          <mxGeometry x="455" y="290" width="60" height="30" as="geometry" />
        </mxCell>
        <mxCell id="majuoLSN9-7fEdckSJZj-14" value="" style="rounded=0;whiteSpace=wrap;html=1;" vertex="1" parent="1">
          <mxGeometry x="522" y="290" width="183" height="30" as="geometry" />
        </mxCell>
        <mxCell id="majuoLSN9-7fEdckSJZj-15" value="" style="triangle;whiteSpace=wrap;html=1;rotation=90;" vertex="1" parent="1">
          <mxGeometry x="685" y="295" width="10" height="20" as="geometry" />
        </mxCell>
        <mxCell id="majuoLSN9-7fEdckSJZj-16" value="YYYY-MM-DD" style="rounded=0;whiteSpace=wrap;html=1;" vertex="1" parent="1">
          <mxGeometry x="553.5" y="350" width="120" height="30" as="geometry" />
        </mxCell>
        <mxCell id="majuoLSN9-7fEdckSJZj-17" value="Date de naissance :" style="text;html=1;strokeColor=none;fillColor=none;align=center;verticalAlign=middle;whiteSpace=wrap;rounded=0;" vertex="1" parent="1">
          <mxGeometry x="428.5" y="350" width="113" height="30" as="geometry" />
        </mxCell>
        <mxCell id="majuoLSN9-7fEdckSJZj-19" value="Sexe :" style="text;html=1;strokeColor=none;fillColor=none;align=center;verticalAlign=middle;whiteSpace=wrap;rounded=0;" vertex="1" parent="1">
          <mxGeometry x="455" y="410" width="60" height="30" as="geometry" />
        </mxCell>
        <mxCell id="majuoLSN9-7fEdckSJZj-23" value="Réalisateur " style="text;html=1;strokeColor=none;fillColor=none;align=center;verticalAlign=middle;whiteSpace=wrap;rounded=0;" vertex="1" parent="1">
          <mxGeometry x="542" y="455" width="80" height="30" as="geometry" />
        </mxCell>
        <mxCell id="majuoLSN9-7fEdckSJZj-24" value="Valider" style="rounded=1;whiteSpace=wrap;html=1;" vertex="1" parent="1">
          <mxGeometry x="545" y="520" width="80" height="30" as="geometry" />
        </mxCell>
        <mxCell id="majuoLSN9-7fEdckSJZj-26" value="" style="rounded=1;whiteSpace=wrap;html=1;" vertex="1" parent="1">
          <mxGeometry x="522" y="414" width="20" height="20" as="geometry" />
        </mxCell>
        <mxCell id="majuoLSN9-7fEdckSJZj-27" value="Homme" style="text;html=1;strokeColor=none;fillColor=none;align=center;verticalAlign=middle;whiteSpace=wrap;rounded=0;" vertex="1" parent="1">
          <mxGeometry x="550" y="410" width="60" height="30" as="geometry" />
        </mxCell>
        <mxCell id="majuoLSN9-7fEdckSJZj-28" value="" style="rounded=1;whiteSpace=wrap;html=1;" vertex="1" parent="1">
          <mxGeometry x="625" y="415" width="20" height="20" as="geometry" />
        </mxCell>
        <mxCell id="majuoLSN9-7fEdckSJZj-29" value="Femme" style="text;html=1;strokeColor=none;fillColor=none;align=center;verticalAlign=middle;whiteSpace=wrap;rounded=0;" vertex="1" parent="1">
          <mxGeometry x="660" y="410" width="60" height="30" as="geometry" />
        </mxCell>
        <mxCell id="majuoLSN9-7fEdckSJZj-30" value="" style="rounded=1;whiteSpace=wrap;html=1;" vertex="1" parent="1">
          <mxGeometry x="625" y="460" width="20" height="20" as="geometry" />
        </mxCell>
        <mxCell id="majuoLSN9-7fEdckSJZj-35" value="Acteur" style="text;html=1;strokeColor=none;fillColor=none;align=center;verticalAlign=middle;whiteSpace=wrap;rounded=0;" vertex="1" parent="1">
          <mxGeometry x="660" y="455" width="60" height="30" as="geometry" />
        </mxCell>
        <mxCell id="majuoLSN9-7fEdckSJZj-36" value="Métier :" style="text;html=1;strokeColor=none;fillColor=none;align=center;verticalAlign=middle;whiteSpace=wrap;rounded=0;" vertex="1" parent="1">
          <mxGeometry x="455" y="455" width="60" height="30" as="geometry" />
        </mxCell>
        <mxCell id="majuoLSN9-7fEdckSJZj-38" value="" style="rounded=1;whiteSpace=wrap;html=1;" vertex="1" parent="1">
          <mxGeometry x="522" y="460" width="20" height="20" as="geometry" />
        </mxCell>
      </root>
    </mxGraphModel>
  </diagram>
</mxfile>
